<?xml version="1.0" encoding="utf-8"?>
<!-- Generator: Adobe Illustrator 19.2.1, SVG Export Plug-In . SVG Version: 6.00 Build 0)  -->
<svg version="1.1" id="Calque_1" xmlns="http://www.w3.org/2000/svg" xmlns:xlink="http://www.w3.org/1999/xlink" x="0px" y="0px"
	 viewBox="0 0 449 165" style="enable-background:new 0 0 449 165;" xml:space="preserve">
<style type="text/css">
	.st0{fill:#000000;}
</style>
<path class="st0" d="M127.8,76.4h-26.1c-0.7,0-1.2,0.6-1.2,1.2v12.9c0,0.7,0.6,1.2,1.2,1.2h10.2v16.1c0,0-2.3,0.8-8.6,0.8
	c-7.4,0-17.9-2.7-17.9-25.9s10.9-26.2,21.1-26.2c8.8,0,12.6,1.6,15,2.3c0.8,0.2,1.5-0.5,1.5-1.2l2.9-12.5c0-0.3-0.1-0.7-0.5-1
	c-1-0.7-6.9-4.1-22.1-4.1C85.9,40,68,47.5,68,83.6c0,36.1,20.4,41.4,37.7,41.4c14.3,0,22.9-6.2,22.9-6.2c0.4-0.2,0.4-0.7,0.4-0.9
	V77.6C129,76.9,128.4,76.4,127.8,76.4 M265,45.2c0-0.7-0.5-1.2-1.2-1.2h-14.7c-0.7,0-1.2,0.5-1.2,1.2v28.6h-22.9V45.2
	c0-0.7-0.5-1.2-1.2-1.2h-14.7c-0.7,0-1.2,0.5-1.2,1.2v77.5c0,0.7,0.5,1.2,1.2,1.2h14.7c0.7,0,1.2-0.6,1.2-1.2V89.6h22.9l0,33.2
	c0,0.7,0.6,1.2,1.2,1.2h14.7c0.7,0,1.2-0.6,1.2-1.2L265,45.2 M158,55c0-5.5-4.5-10-10-10s-10,4.5-10,10s4.5,10,10,10
	S158,60.5,158,55 M156,105.3V69.2c0-0.7-0.5-1.2-1.2-1.2h-14.5c-0.7,0-1.3,0.7-1.3,1.4V121c0,1.5,0.9,2,2.1,2h13.1
	c1.4,0,1.8-0.7,1.8-2L156,105.3 M319.8,68h-14.6c-0.7,0-1.2,0.6-1.2,1.2v38c0,0-3.7,2.7-9,2.7s-6.7-2.4-6.7-7.6V69.2
	c0-0.7-0.5-1.2-1.2-1.2h-14.8c-0.7,0-1.2,0.6-1.2,1.2v35.6c0,15.4,8.5,19.2,20.3,19.2c9.6,0,17.4-5.3,17.4-5.3s0.4,2.8,0.5,3.1
	c0.2,0.3,0.6,0.7,1.1,0.7l9.4-0.1c0.7,0,1.2-0.6,1.2-1.2v-52C321,68.5,320.4,68,319.8,68 M355.6,112c-3-0.1-6-0.9-8.6-2.5V84.6
	c0,0,3.4-2.1,7.6-2.5c5.3-0.5,10.4,1.1,10.4,13.9C365,109.5,362.7,112.2,355.6,112L355.6,112z M361.3,67.6c-8.3,0-14,3.7-14,3.7v-26
	c0-0.7-0.6-1.2-1.2-1.2h-14.8c-0.7,0-1.2,0.6-1.2,1.3v77c0,0.7,0.5,1.2,1.2,1.2h10.3c0.5,0,0.8-0.2,1.1-0.6c0.2-0.4,0.6-3.6,0.6-3.6
	s6.1,5.7,17.6,5.7c13.5,0,21.2-6.8,21.2-30.5s-12.4-26.8-20.7-26.8V67.6z M197.5,68.8h-11.2l0-15c0-0.6-0.3-0.8-0.9-0.8H170
	c-0.6,0-0.9,0.3-0.9,0.8v15.5c0,0-7.7,1.9-8.2,2c-0.5,0.2-0.9,0.6-0.9,1.2v9.7c0,0.7,0.6,1.3,1.2,1.3h7.9v23.4
	c0,17.4,12.1,19.1,20.3,19.1c3-0.1,6-0.6,8.9-1.5c0.4-0.2,0.7-0.6,0.7-1.1l0-10.7c0-0.7-0.6-1.3-1.2-1.3s-2.3,0.2-4.1,0.2
	c-5.5,0-7.4-2.6-7.4-5.9V83.5h11.2c0.7,0,1.2-0.6,1.2-1.3V70.1C198.8,69.4,198.2,68.8,197.5,68.8"/>
</svg>
