<svg xmlns="http://www.w3.org/2000/svg" width="188" height="200" viewBox="0 0 188 200">
  <defs>
    <style>
      .cls-1 {
        fill-rule: evenodd;
      }
    </style>
  </defs>
  <path id="Forme_1_copie_26" data-name="Forme 1 copie 26" class="cls-1" d="M186.587,149.1a4.567,4.567,0,0,0-1.707-.339,5.508,5.508,0,0,0-2.31.472,5.279,5.279,0,0,0-1.775,1.3,5.955,5.955,0,0,0-1.15,1.945,6.909,6.909,0,0,0-.406,2.392,7.624,7.624,0,0,0,.406,2.538,6.011,6.011,0,0,0,1.15,2.006,5.284,5.284,0,0,0,4.085,1.812,4.118,4.118,0,0,0,1.938-.5,5.357,5.357,0,0,0,1.753-1.583l2.415,1.788a6.632,6.632,0,0,1-2.717,2.319,8.165,8.165,0,0,1-3.412.726,9.289,9.289,0,0,1-3.494-.64,7.942,7.942,0,0,1-2.738-1.813,8.341,8.341,0,0,1-1.8-2.815,9.849,9.849,0,0,1-.65-3.65,10.275,10.275,0,0,1,.65-3.733,8.4,8.4,0,0,1,1.8-2.863,7.832,7.832,0,0,1,2.738-1.825,9.289,9.289,0,0,1,3.494-.641,7.714,7.714,0,0,1,3.1.617,7.244,7.244,0,0,1,2.658,2.09l-2.275,1.74A4.9,4.9,0,0,0,186.587,149.1ZM81,63.008V114a34.381,34.381,0,0,1-1.436,10.925,23,23,0,0,1-4.64,8.164,19.938,19.938,0,0,1-7.355,5.125,25.4,25.4,0,0,1-9.713,1.777A31.208,31.208,0,0,1,40,134.428l4.869-13.084a21.973,21.973,0,0,0,7.1,1.443c4.6,0,7.029-2.946,7.029-8.787l0.006-51Zm84.634-7.016L89.488,10.05,11.462,55V144.87L88.8,190.428l12.559-8.649,4.932,7.415L89.14,200.987,3,150.442V50.127L88.919-.014,174.1,50.537v79.169l-8.47-.013v-73.7Zm-64.46,90.45h10.887V149.2H104.1v4.2h7.545v2.754H104.1v4.64h8.381v2.755h-11.3v-17.11Zm21.53,0.242a5.516,5.516,0,0,1,1.938.81,4.1,4.1,0,0,1,1.335,1.522,5.1,5.1,0,0,1,.5,2.38,5.5,5.5,0,0,1-.534,2.61,3.907,3.907,0,0,1-1.439,1.535,5.89,5.89,0,0,1-2.1.738,15.727,15.727,0,0,1-2.5.192h-2.089v7.081h-2.925v-17.11h5.526A10.654,10.654,0,0,1,122.7,146.685Zm-4.887,2.369v4.808h1.765c0.418,0,.85-0.015,1.3-0.048a3.894,3.894,0,0,0,1.242-.29,2.414,2.414,0,0,0,.963-3.347,2.191,2.191,0,0,0-.836-0.725,3.42,3.42,0,0,0-1.138-.326,10.569,10.569,0,0,0-1.207-.072h-2.089Zm-30.8,14.5v-17.11h5.71a11.191,11.191,0,0,1,2.286.23,5.755,5.755,0,0,1,1.962.785,4.071,4.071,0,0,1,1.37,1.5,4.988,4.988,0,0,1,.511,2.392,4.9,4.9,0,0,1-.987,3.118,4.181,4.181,0,0,1-2.82,1.522l4.364,7.564H95.881l-3.807-7.25H89.938v7.25H87.014Zm5.2-9.86q0.626,0,1.253-.06a3.725,3.725,0,0,0,1.149-.29,1.979,1.979,0,0,0,.847-0.7,2.3,2.3,0,0,0,.326-1.317,2.168,2.168,0,0,0-.3-1.208,1.9,1.9,0,0,0-.79-0.689,3.5,3.5,0,0,0-1.079-.3,9.515,9.515,0,0,0-1.149-.072H89.938v4.639h2.276Zm18.577-67.248q13.4,3.17,20.3,9.207a18.764,18.764,0,0,1,6.9,14.641,28.967,28.967,0,0,1-1.9,10.994,19.82,19.82,0,0,1-5.465,7.7,23.288,23.288,0,0,1-8.729,4.554,41.773,41.773,0,0,1-11.7,1.509q-14.492,0-25.42-5.333a136.781,136.781,0,0,0,4.747-13.987,18.792,18.792,0,0,1,.594-1.811l7.418,1.86q1.335,0.3,2.868.655t3.067,0.629q1.533,0.277,2.917.478a17.145,17.145,0,0,0,2.424.2q1.68,0,3.24-.125a9.964,9.964,0,0,0,2.745-.58,4.529,4.529,0,0,0,1.9-1.307,3.5,3.5,0,0,0,.718-2.315,3.594,3.594,0,0,0-1.632-2.969,17.735,17.735,0,0,0-4.081-2.163,51.039,51.039,0,0,0-5.366-1.735q-2.919-.78-5.44-1.686a27.613,27.613,0,0,1-6.528-3.019,22.2,22.2,0,0,1-5.218-4.553A20.2,20.2,0,0,1,85.717,91.3,21.1,21.1,0,0,1,84.48,83.93q0-22.943,27.1-22.942a53.626,53.626,0,0,1,23.936,5.433l-5.441,15.4-7.591-1.988c-1.862-.486-13.418-3.663-15.949-1.006q-1.188.678-1.187,2.792Q105.35,84.785,110.791,86.446Zm20.676,70.728a5.007,5.007,0,0,0,.186,1.317,3.737,3.737,0,0,0,.615,1.269,3.306,3.306,0,0,0,1.138.954,4.283,4.283,0,0,0,3.5,0,3.327,3.327,0,0,0,1.136-.954,3.758,3.758,0,0,0,.616-1.269,5.049,5.049,0,0,0,.186-1.317v-10.73h2.924V157.27a7.316,7.316,0,0,1-.51,2.791,6.266,6.266,0,0,1-1.393,2.114,6.1,6.1,0,0,1-2.089,1.342,7.539,7.539,0,0,1-5.246,0,6.206,6.206,0,0,1-2.1-1.342,6.037,6.037,0,0,1-1.393-2.114,7.413,7.413,0,0,1-.5-2.791V146.443h2.925v10.73Zm21.681-10.5a4.6,4.6,0,0,1,1.613.75,3.979,3.979,0,0,1,1.15,1.34,4.151,4.151,0,0,1,.44,1.982,3.6,3.6,0,0,1-.789,2.392,4.361,4.361,0,0,1-2.065,1.353v0.049a4.16,4.16,0,0,1,1.427.447,3.808,3.808,0,0,1,1.125.894,4.169,4.169,0,0,1,.732,1.257,4.361,4.361,0,0,1,.267,1.534,4.625,4.625,0,0,1-.535,2.332,4.318,4.318,0,0,1-1.4,1.5,5.881,5.881,0,0,1-2,.809,10.875,10.875,0,0,1-2.286.242h-5.92v-17.11h6.407A7.439,7.439,0,0,1,153.148,146.673Zm-5.316,14.27h2.693a10.469,10.469,0,0,0,1.195-.073,3.485,3.485,0,0,0,1.172-.338,2.313,2.313,0,0,0,.882-0.762,2.28,2.28,0,0,0,.349-1.34,2.047,2.047,0,0,0-.848-1.885,5.087,5.087,0,0,0-2.634-.531h-2.809v4.929Zm0-11.889v4.35h2.67a3.432,3.432,0,0,0,2.193-.593,2.11,2.11,0,0,0-.023-3.214,4.224,4.224,0,0,0-2.425-.543h-2.415ZM162.41,160.8H169.4v2.755h-9.913v-17.11h2.925V160.8Zm11.514,2.755H171v-17.11h2.925v17.11Z" transform="translate(-3)"/>
</svg>
