<svg xmlns="http://www.w3.org/2000/svg" width="188" height="200" viewBox="0 0 188 200"><defs><style>.cls-1 { fill-rule: evenodd; fill: white; }</style></defs><path id="Forme_1_copie_26" data-name="Forme 1 copie 26" class="cls-1" d="M183.587 149.1a4.567 4.567 0 0 0-1.707-.34 5.508 5.508 0 0 0-2.31.473 5.28 5.28 0 0 0-1.775 1.3 5.955 5.955 0 0 0-1.15 1.945 6.91 6.91 0 0 0-.406 2.392 7.624 7.624 0 0 0 .405 2.538 6.01 6.01 0 0 0 1.15 2.006 5.284 5.284 0 0 0 4.085 1.812 4.118 4.118 0 0 0 1.938-.5 5.357 5.357 0 0 0 1.753-1.583l2.416 1.788a6.632 6.632 0 0 1-2.717 2.32 8.165 8.165 0 0 1-3.413.726 9.29 9.29 0 0 1-3.494-.64 7.942 7.942 0 0 1-2.738-1.813 8.34 8.34 0 0 1-1.8-2.815 9.85 9.85 0 0 1-.65-3.65 10.275 10.275 0 0 1 .65-3.733 8.4 8.4 0 0 1 1.8-2.863 7.832 7.832 0 0 1 2.738-1.825 9.29 9.29 0 0 1 3.494-.64 7.714 7.714 0 0 1 3.1.616 7.244 7.244 0 0 1 2.658 2.09l-2.275 1.74a4.9 4.9 0 0 0-1.753-1.343zM78 63.008V114a34.38 34.38 0 0 1-1.436 10.925 23 23 0 0 1-4.64 8.164 19.938 19.938 0 0 1-7.355 5.124 25.4 25.4 0 0 1-9.714 1.777A31.208 31.208 0 0 1 37 134.43l4.87-13.084a21.973 21.973 0 0 0 7.1 1.443c4.6 0 7.028-2.946 7.028-8.787l.006-51zm84.634-7.016L86.488 10.05 8.462 55v89.87L85.8 190.428l12.56-8.65 4.93 7.416-17.15 11.793L0 150.442V50.127L85.92-.013l85.18 50.55v79.17l-8.47-.014v-73.7zm-64.46 90.45h10.887v2.758h-7.96v4.2h7.545v2.754H101.1v4.64h8.38v2.755h-11.3v-17.11zm21.53.242a5.516 5.516 0 0 1 1.938.81 4.1 4.1 0 0 1 1.335 1.522 5.1 5.1 0 0 1 .5 2.38 5.5 5.5 0 0 1-.534 2.61 3.907 3.907 0 0 1-1.44 1.535 5.89 5.89 0 0 1-2.1.74 15.727 15.727 0 0 1-2.5.19h-2.088v7.082h-2.925v-17.11h5.526a10.654 10.654 0 0 1 2.284.243zm-4.887 2.37v4.807h1.765c.418 0 .85-.014 1.3-.047a3.894 3.894 0 0 0 1.242-.29 2.414 2.414 0 0 0 .963-3.347 2.19 2.19 0 0 0-.836-.725 3.42 3.42 0 0 0-1.137-.325 10.57 10.57 0 0 0-1.207-.072h-2.09zm-30.8 14.5v-17.11h5.71a11.19 11.19 0 0 1 2.286.23 5.755 5.755 0 0 1 1.962.784 4.07 4.07 0 0 1 1.37 1.5 4.988 4.988 0 0 1 .51 2.392 4.9 4.9 0 0 1-.986 3.118 4.18 4.18 0 0 1-2.82 1.522l4.363 7.564H92.88l-3.806-7.25h-2.136v7.25h-2.924zm5.2-9.86q.626 0 1.253-.06a3.725 3.725 0 0 0 1.15-.29 1.98 1.98 0 0 0 .846-.7 2.3 2.3 0 0 0 .326-1.318 2.168 2.168 0 0 0-.3-1.208 1.9 1.9 0 0 0-.79-.69 3.5 3.5 0 0 0-1.08-.3 9.515 9.515 0 0 0-1.148-.07h-2.536v4.638h2.276zm18.577-67.25q13.4 3.17 20.3 9.208a18.764 18.764 0 0 1 6.9 14.64 28.967 28.967 0 0 1-1.9 10.995 19.82 19.82 0 0 1-5.465 7.7 23.288 23.288 0 0 1-8.73 4.554 41.773 41.773 0 0 1-11.7 1.51q-14.492 0-25.42-5.333a136.78 136.78 0 0 0 4.747-13.987 18.792 18.792 0 0 1 .594-1.81l7.42 1.86q1.334.3 2.867.654t3.067.63q1.533.276 2.917.477a17.145 17.145 0 0 0 2.425.2q1.68 0 3.24-.124a9.964 9.964 0 0 0 2.745-.58 4.53 4.53 0 0 0 1.9-1.307 3.5 3.5 0 0 0 .718-2.316 3.594 3.594 0 0 0-1.632-2.97 17.735 17.735 0 0 0-4.08-2.162 51.04 51.04 0 0 0-5.367-1.735q-2.92-.78-5.44-1.686a27.613 27.613 0 0 1-6.53-3.018 22.2 22.2 0 0 1-5.217-4.553 20.2 20.2 0 0 1-3.436-5.99 21.1 21.1 0 0 1-1.237-7.37q0-22.943 27.1-22.942a53.626 53.626 0 0 1 23.936 5.433l-5.44 15.4-7.592-1.987c-1.862-.486-13.418-3.663-15.95-1.006q-1.187.678-1.186 2.792.002 3.165 5.443 4.826zm20.676 70.73a5.007 5.007 0 0 0 .186 1.316 3.737 3.737 0 0 0 .615 1.27 3.306 3.306 0 0 0 1.14.953 4.283 4.283 0 0 0 3.5 0 3.327 3.327 0 0 0 1.135-.954 3.758 3.758 0 0 0 .616-1.27 5.05 5.05 0 0 0 .187-1.317v-10.73h2.924v10.827a7.316 7.316 0 0 1-.51 2.79 6.266 6.266 0 0 1-1.392 2.115 6.1 6.1 0 0 1-2.09 1.342 7.54 7.54 0 0 1-5.245 0 6.206 6.206 0 0 1-2.1-1.342 6.037 6.037 0 0 1-1.393-2.114 7.413 7.413 0 0 1-.5-2.79v-10.827h2.925v10.73zm21.68-10.5a4.6 4.6 0 0 1 1.614.75 3.98 3.98 0 0 1 1.15 1.34 4.15 4.15 0 0 1 .44 1.98 3.6 3.6 0 0 1-.79 2.393 4.36 4.36 0 0 1-2.064 1.353v.05a4.16 4.16 0 0 1 1.427.446 3.808 3.808 0 0 1 1.125.894 4.17 4.17 0 0 1 .732 1.257 4.36 4.36 0 0 1 .267 1.534 4.625 4.625 0 0 1-.534 2.333 4.318 4.318 0 0 1-1.4 1.5 5.88 5.88 0 0 1-2 .81 10.875 10.875 0 0 1-2.286.24h-5.92v-17.11h6.407a7.44 7.44 0 0 1 1.83.23zm-5.315 14.27h2.693a10.47 10.47 0 0 0 1.195-.074 3.485 3.485 0 0 0 1.172-.338 2.313 2.313 0 0 0 .882-.762 2.28 2.28 0 0 0 .35-1.34 2.047 2.047 0 0 0-.85-1.885 5.087 5.087 0 0 0-2.633-.53h-2.81v4.928zm0-11.89v4.35h2.67a3.432 3.432 0 0 0 2.193-.593 2.11 2.11 0 0 0-.023-3.213 4.224 4.224 0 0 0-2.425-.543h-2.415zM159.41 160.8h6.99v2.755h-9.913v-17.11h2.925V160.8zm11.514 2.755H168v-17.11h2.925v17.11z"/></svg>
