<svg id="Calque_1" data-name="Calque 1" xmlns="http://www.w3.org/2000/svg" viewBox="0 0 713.33 296.67"><defs><style>.cls-1{fill:#2ecc71;}.cls-2,.cls-4{fill:#27ae60;stroke:#27ae60;}.cls-2{stroke-linecap:square;stroke-miterlimit:3;stroke-width:10px;}.cls-3,.cls-4{isolation:isolate;font-size:180px;font-family:Varela Round;}.cls-3{fill:#fff;}.cls-4{stroke-miterlimit:10;letter-spacing:20px;}.cls-5{letter-spacing:21px;}</style></defs><title>pcgb-logo</title><path class="cls-1" d="M124.2 291.77a13.63 13.63 0 0 0 13.8 0L252.1 226a13.73 13.73 0 0 0 6.9-11.9V82.27a13.61 13.61 0 0 0-6.9-11.9L138 4.37a13.63 13.63 0 0 0-13.8 0l-114 65.9a13.77 13.77 0 0 0-6.9 12v131.8A13.61 13.61 0 0 0 10.2 226l114 65.8"/><path class="cls-2" d="M222.5 206.87a7.78 7.78 0 0 0 4-6.8V98.37a8 8 0 0 0-4-6.7l-89.6-51.6a8.34 8.34 0 0 0-8.1.2l-86.6 51.4c-2.3 1.4-2.5 3.9-2.5 6.7v101.7c0 2.8 0 5.4 2.5 6.8L124.8 256a8.34 8.34 0 0 0 8.1 0z"/><text class="cls-3" transform="translate(70.94 210.33)">P</text><text class="cls-4" transform="translate(293.49 211.33)">C<tspan class="cls-5" x="145.98" y="0">GB</tspan></text></svg>