<?xml version="1.0" encoding="utf-8"?>
<!-- Generator: Adobe Illustrator 19.2.1, SVG Export Plug-In . SVG Version: 6.00 Build 0)  -->
<svg version="1.1" id="Calque_1" xmlns="http://www.w3.org/2000/svg" xmlns:xlink="http://www.w3.org/1999/xlink" x="0px" y="0px"
	 viewBox="0 0 107 67" style="enable-background:new 0 0 107 67;" xml:space="preserve">
<style type="text/css">
	.st0{fill:#006B8A;}
	.st1{fill:#3E3D39;}
</style>
<title>Group</title>
<g>
	<path class="st0" d="M48.3,65.2h-0.2c-1.1,0-1.3-0.3-1.3-1.7v-6.7h1.5c3.2,0,3.8,2.3,3.8,4.2C52.1,62.8,51.5,65.2,48.3,65.2z
		 M35.3,60.9v-4.1h1.3c1.4,0,2,1,2,2.1c0,1.1-0.6,2-2,2H35.3L35.3,60.9z M48.2,55.9h-5.5v0.6c1.7,0,2,0.4,2,2.6v3.9
		c0,2.2-0.3,2.6-2,2.6c-1.3-0.2-2.2-0.9-3.4-2.2l-1.4-1.5c1.9-0.3,2.9-1.5,2.9-2.9c0-1.7-1.4-3-4.1-3h-5.4v0.6c1.7,0,2,0.4,2,2.6v4
		c0,2.2-0.3,2.6-2,2.6v0.6h6.1v-0.6c-1.7,0-2-0.4-2-2.6v-1.1h0.5l3.4,4.3h8.9c4.4,0,6.3-2.3,6.3-5.2C54.5,58.2,52.6,55.9,48.2,55.9
		L48.2,55.9z M14.1,62l2.1-6.3c0.6-1.8,0.3-2.3-1.6-2.3v-0.6h5.8v0.6c-1.9,0-2.4,0.5-3.2,2.7l-3.5,10.5h-0.4L10.2,57L7,66.6H6.6
		L3.2,56.1c-0.7-2.2-1.2-2.7-3-2.7v-0.6H7v0.6c-1.8,0-2.3,0.4-1.7,2.3L7.4,62l3.1-9.2h0.6L14.1,62 M24.5,56.4
		c-2.8,0-3.8,2.6-3.8,4.6c0,2,1,4.6,3.8,4.6c2.9,0,3.8-2.5,3.8-4.6C28.4,59,27.4,56.4,24.5,56.4L24.5,56.4z M24.5,66.5
		c-3.4,0-6.1-2.5-6.1-5.5c0-3,2.8-5.5,6.1-5.5s6.1,2.5,6.1,5.5C30.7,64,27.9,66.5,24.5,66.5L24.5,66.5z"/>
	<path class="st1" d="M61.4,53.9h-1.8v5.4h1.8c1.7,0,2.5-1.2,2.5-2.7C63.9,55.1,63.1,53.9,61.4,53.9L61.4,53.9z M62.1,65.5v0.6h-7
		v-0.6c2.1,0,2.4-0.5,2.4-3.6V57c0-3.1-0.4-3.6-2.4-3.6v-0.6h6.4c3.2,0,4.9,1.6,4.9,3.8c0,2.1-1.8,3.8-4.9,3.8h-1.8v1.5
		C59.7,65,60,65.5,62.1,65.5L62.1,65.5z M71.1,60.9v-4.1h1.3c1.4,0,2,1,2,2.1c0,1.1-0.6,2-2,2L71.1,60.9L71.1,60.9z M87.4,63.2
		l-0.2,0.5c-0.3,1-0.6,1.4-2.8,1.4H84c-1.6,0-1.9-0.4-1.9-2.6v-1.4c2.4,0,2.6,0.2,2.6,1.8h0.6v-4.6h-0.6c0,1.6-0.2,1.8-2.6,1.8v-3.5
		h1.7c2.2,0,2.5,0.4,2.8,1.4l0.2,0.6h0.5l-0.2-2.9h-9v0.6c1.7,0,2,0.4,2,2.6v3.9c0,2-0.2,2.5-1.6,2.6c-1.3-0.2-2.2-0.9-3.4-2.2
		l-1.4-1.5c1.9-0.3,2.9-1.5,2.9-2.9c0-1.7-1.4-3-4.1-3h-5.4v0.6c1.7,0,2,0.4,2,2.6v3.9c0,2.2-0.3,2.6-2,2.6v0.6h6.1v-0.6
		c-1.7,0-2-0.4-2-2.6v-1.1h0.5l3.4,4.3h12.6l0.2-2.9L87.4,63.2L87.4,63.2z M93.7,66.5c-1.2,0-2.3-0.7-2.8-1.1
		c-0.2,0.2-0.4,0.6-0.5,1.1h-0.6v-4.2h0.6c0.2,2,1.7,3.2,3.5,3.2c1,0,1.8-0.6,1.8-1.5c0-0.8-0.7-1.4-2-2l-1.8-0.8
		c-1.2-0.6-2.2-1.6-2.2-3c0-1.5,1.4-2.7,3.3-2.7c1,0,1.9,0.4,2.4,0.8c0.2-0.1,0.3-0.5,0.4-0.8h0.6v3.6h-0.6c-0.2-1.5-1-2.7-2.6-2.7
		c-0.9,0-1.7,0.5-1.7,1.3c0,0.8,0.6,1.2,2.1,1.9l1.7,0.8c1.5,0.7,2.1,1.8,2.1,2.8C97.4,65.1,95.7,66.5,93.7,66.5 M103.1,66.5
		c-1.2,0-2.3-0.6-2.8-1.1c-0.2,0.2-0.4,0.6-0.5,1h-0.6v-4.2h0.6c0.2,2,1.7,3.2,3.5,3.2c1,0,1.8-0.6,1.8-1.5c0-0.8-0.7-1.4-2-2
		l-1.8-0.8c-1.2-0.6-2.2-1.6-2.2-3c0-1.5,1.4-2.7,3.3-2.7c1,0,1.9,0.4,2.4,0.8c0.2-0.1,0.3-0.5,0.4-0.8h0.6v3.6h-0.7
		c-0.2-1.5-1-2.7-2.6-2.7c-0.9,0-1.7,0.5-1.7,1.3c0,0.8,0.6,1.2,2.1,1.9l1.7,0.8c1.5,0.7,2.1,1.8,2.1,2.8
		C106.8,65.1,105.1,66.5,103.1,66.5 M33.6,23.4c0,7.9,4.6,14.7,11.2,17.9l-9.5-26C34.2,17.8,33.6,20.5,33.6,23.4 M66.8,22.4
		c0-2.5-0.9-4.2-1.6-5.5c-1-1.6-2-3-2-4.7c0-1.8,1.4-3.5,3.3-3.5c0.1,0,0.2,0,0.3,0c-3.5-3.2-8.2-5.2-13.4-5.2c-6.9,0-13,3.6-16.6,9
		c0.5,0,0.9,0,1.3,0c2.1,0,5.3-0.3,5.3-0.3c1.1-0.1,1.2,1.5,0.1,1.6c0,0-1.1,0.1-2.3,0.2l7.2,21.6l4.3-13.1l-3.1-8.5
		c-1.1-0.1-2.1-0.2-2.1-0.2c-1.1-0.1-0.9-1.7,0.1-1.6c0,0,3.3,0.2,5.2,0.2c2.1,0,5.3-0.2,5.3-0.2c1.1-0.1,1.2,1.5,0.1,1.6
		c0,0-1.1,0.1-2.3,0.2l7.2,21.4l2-6.6C66.1,26.1,66.8,24.1,66.8,22.4"/>
	<path class="st1" d="M53.8,25.1l-6,17.4c1.8,0.5,3.7,0.8,5.6,0.8c2.3,0,4.5-0.4,6.6-1.1c-0.1-0.1-0.1-0.2-0.1-0.3L53.8,25.1
		 M70.8,13.8c0.1,0.6,0.1,1.3,0.1,2.1c0,2-0.4,4.3-1.5,7.1l-6.1,17.6c5.9-3.5,9.9-9.9,9.9-17.2C73.3,19.9,72.4,16.7,70.8,13.8"/>
	<path class="st1" d="M53.4,45.5c-12.2,0-22.1-9.9-22.1-22.2c0-12.2,9.9-22.2,22.1-22.2c12.2,0,22.1,9.9,22.1,22.2
		C75.5,35.6,65.6,45.5,53.4,45.5z M53.4,0.2c-12.8,0-23.1,10.4-23.1,23.2c0,12.8,10.4,23.2,23.1,23.2c12.8,0,23.1-10.4,23.1-23.2
		C76.5,10.6,66.2,0.2,53.4,0.2L53.4,0.2z"/>
</g>
</svg>
